<svg width="302" height="60" viewBox="0 0 302 60" fill="none" xmlns="http://www.w3.org/2000/svg">
<path d="M58.8121 5.14152e-06L46.8214 4.09326e-06L6.32363 51.1551C3.76574 54.3861 6.0669 59.1429 10.1879 59.1429L22.1786 59.1429L62.6764 7.98776C65.2342 4.75674 62.9331 5.50178e-06 58.8121 5.14152e-06Z" fill="#121212"/>
<path d="M44.3572 55.2C44.3572 46.4896 51.4183 39.4285 60.1286 39.4285C62.3062 39.4285 64.0715 41.1938 64.0715 43.3714L64.0715 54.2142C64.0715 56.9362 61.8649 59.1428 59.1429 59.1428L48.3 59.1428C46.1225 59.1428 44.3572 57.3775 44.3572 55.2Z" fill="#121212"/>
<path d="M4.92859 4.92857C4.92859 2.20659 7.13519 1.92907e-07 9.85716 4.30869e-07L20.7 1.37878e-06C22.8776 1.56915e-06 24.6429 1.76528 24.6429 3.94286C24.6429 12.6532 17.5818 19.7143 8.87144 19.7143C6.69386 19.7143 4.92859 17.949 4.92859 15.7714L4.92859 4.92857Z" fill="#121212"/>
<path d="M90.344 18.4777V23.9817H105.992L90.088 37.9017V42.2857H117.128V36.6537H100.584L116.904 22.8297V18.4777H90.344ZM120.043 18.4777V42.2857H145.451V36.7497H127.403V32.8457H144.715V27.4057H127.403V23.8857H145.131V18.4777H120.043ZM148.543 18.4777V42.2857H172.543V36.3657H155.999V18.4777H148.543ZM175.293 18.4777V42.2857H200.701V36.7497H182.653V32.8457H199.965V27.4057H182.653V23.8857H200.381V18.4777H175.293ZM196.093 12.0137H188.989V16.8137H196.093V12.0137ZM187.325 12.0137H180.221V16.8137H187.325V12.0137ZM203.793 18.4777V42.2857H211.153V26.5097L227.313 42.2857H234.673V18.4777H227.313V33.4537L212.113 18.4777H203.793ZM245.78 42.2857V31.0537L258.356 42.2857H268.084L253.748 29.3577L267.444 18.4777H257.972L245.78 28.3977V18.4777H238.324V42.2857H245.78ZM288.834 32.5577H279.81L284.226 23.6297L288.834 32.5577ZM293.826 42.2857H301.858L289.122 18.4777H279.458L267.425 42.2857H275.01L277.154 37.9337H291.586L293.826 42.2857Z" fill="#121212"/>
</svg>
