<svg width="115" height="100" viewBox="0 0 115 100" fill="none" xmlns="http://www.w3.org/2000/svg">
<path d="M98.0694 0.857064L78.1429 0.857062L10.8422 85.8684C6.59139 91.2379 10.4155 99.1428 17.2639 99.1428L37.1905 99.1428L104.491 14.1314C108.742 8.76198 104.918 0.857065 98.0694 0.857064Z" fill="#91FE2F"/>
<path d="M74.0476 92.5904C74.0476 78.1153 85.782 66.3809 100.257 66.3809C103.876 66.3809 106.81 69.3145 106.81 72.9332L106.81 90.9523C106.81 95.4758 103.143 99.1428 98.6191 99.1428L80.6 99.1428C76.9812 99.1428 74.0476 96.2092 74.0476 92.5904Z" fill="#91FE2F"/>
<path d="M8.52381 9.04753C8.52381 4.52406 12.1908 0.857056 16.7143 0.857056L34.7333 0.857058C38.3521 0.857058 41.2857 3.79066 41.2857 7.40944C41.2857 21.8846 29.5513 33.619 15.0762 33.619C11.4574 33.619 8.52381 30.6854 8.52381 27.0666L8.52381 9.04753Z" fill="#91FE2F"/>
</svg>
