<?xml version="1.0" standalone="no"?>
<!DOCTYPE svg PUBLIC "-//W3C//DTD SVG 20010904//EN"
 "http://www.w3.org/TR/2001/REC-SVG-20010904/DTD/svg10.dtd">
<svg version="1.0" xmlns="http://www.w3.org/2000/svg"
 width="920.000000pt" height="920.000000pt" viewBox="0 0 920.000000 920.000000"
 preserveAspectRatio="xMidYMid meet">
<metadata>
Created by potrace 1.14, written by Peter Selinger 2001-2017
</metadata>
<g transform="translate(0.000000,920.000000) scale(0.100000,-0.100000)"
fill="#000000" stroke="none">
<path d="M1955 8533 c-33 -2 -213 -5 -400 -7 -321 -4 -358 -5 -395 -19 -8 -3
-30 -10 -49 -16 -47 -15 -151 -74 -183 -104 -15 -14 -36 -31 -46 -39 -51 -36
-160 -217 -176 -293 -3 -16 -9 -41 -13 -55 -3 -14 -7 -208 -8 -431 -1 -223 -5
-411 -9 -418 -4 -6 -4 -11 1 -11 4 0 8 -181 8 -403 l0 -402 28 -74 c15 -41 34
-82 42 -91 8 -9 15 -21 15 -26 0 -16 92 -108 141 -140 106 -72 193 -94 357
-91 67 1 122 4 122 7 0 3 17 5 38 6 63 1 127 9 140 18 6 4 12 5 12 2 0 -2 26
2 58 9 33 8 70 16 83 19 106 23 297 94 414 153 39 20 80 41 92 47 13 6 23 14
23 19 0 4 6 7 13 7 17 0 170 104 262 178 84 68 234 216 295 292 25 30 47 57
50 60 10 10 109 155 129 190 8 14 27 46 42 73 16 26 25 47 21 47 -4 0 -2 4 3
8 22 16 83 156 125 287 18 55 35 107 38 115 2 8 6 22 8 30 2 8 12 56 23 106
46 211 56 483 21 577 -45 120 -134 234 -230 293 -91 56 -171 72 -367 74 -98 0
-288 2 -423 3 -135 1 -272 1 -305 0z"/>
<path d="M6288 8532 c-27 -2 -48 -7 -48 -12 0 -5 -7 -15 -15 -23 -8 -8 -38
-45 -66 -83 -29 -37 -58 -75 -65 -84 -7 -8 -29 -35 -49 -60 -20 -25 -44 -54
-53 -65 -10 -11 -30 -38 -46 -60 -17 -22 -33 -42 -36 -45 -3 -3 -21 -25 -40
-50 -19 -25 -39 -50 -45 -57 -5 -7 -20 -25 -32 -40 -12 -15 -45 -58 -75 -94
-29 -37 -78 -99 -108 -139 -30 -40 -62 -80 -71 -89 -8 -9 -31 -36 -49 -61 -41
-53 -51 -67 -65 -83 -6 -7 -53 -66 -105 -132 -126 -160 -322 -407 -335 -421
-5 -7 -18 -23 -28 -36 -21 -30 -190 -243 -218 -276 -10 -12 -19 -24 -19 -27 0
-2 -10 -15 -22 -29 -13 -13 -28 -30 -33 -38 -12 -14 -120 -152 -163 -207 -15
-19 -35 -44 -44 -55 -10 -12 -37 -46 -60 -76 -24 -30 -47 -60 -53 -66 -5 -6
-19 -23 -30 -38 -11 -16 -25 -33 -30 -40 -6 -6 -26 -31 -45 -56 -19 -25 -37
-47 -40 -50 -9 -8 -54 -65 -75 -94 -11 -16 -25 -33 -30 -40 -6 -6 -35 -42 -65
-81 -30 -38 -59 -75 -65 -81 -5 -6 -19 -23 -30 -38 -11 -16 -25 -33 -30 -40
-6 -6 -26 -31 -45 -56 -19 -25 -37 -47 -40 -50 -3 -3 -19 -23 -35 -45 -17 -22
-32 -42 -36 -45 -3 -3 -39 -48 -79 -100 -41 -52 -77 -97 -80 -100 -3 -3 -37
-45 -75 -95 -39 -49 -77 -99 -87 -110 -9 -11 -78 -99 -154 -195 -76 -96 -140
-177 -143 -180 -4 -3 -19 -23 -36 -45 -16 -22 -34 -45 -40 -51 -5 -7 -20 -25
-32 -40 -13 -16 -55 -69 -93 -119 -39 -49 -82 -103 -95 -120 -14 -16 -50 -61
-81 -100 -30 -38 -70 -88 -87 -109 -18 -21 -40 -52 -50 -67 -11 -16 -23 -29
-28 -29 -5 0 -9 -5 -9 -11 0 -6 -16 -30 -36 -53 -19 -22 -38 -45 -42 -51 -4
-5 -29 -37 -55 -70 -60 -75 -44 -55 -222 -280 -173 -219 -176 -223 -192 -240
-7 -8 -13 -18 -13 -24 0 -6 -3 -11 -7 -11 -5 0 -33 -32 -63 -71 -81 -104 -228
-290 -251 -317 -10 -12 -19 -24 -19 -27 0 -2 -10 -15 -22 -28 -30 -32 -81 -96
-92 -116 -5 -9 -14 -21 -20 -27 -6 -6 -24 -28 -41 -49 -16 -21 -48 -61 -71
-89 -23 -28 -87 -109 -144 -181 -56 -71 -106 -131 -111 -133 -5 -2 -9 -9 -9
-16 0 -6 -16 -29 -35 -49 -19 -20 -35 -41 -35 -45 0 -4 -9 -14 -20 -22 -11 -8
-20 -18 -20 -23 0 -4 -21 -34 -47 -65 -27 -32 -59 -73 -73 -91 -14 -18 -32
-40 -40 -49 -67 -72 -133 -195 -156 -293 -74 -303 86 -629 371 -754 55 -25 62
-27 150 -45 39 -8 1021 -14 1656 -10 56 0 56 0 100 56 24 30 51 64 59 74 8 10
25 32 37 47 39 51 202 258 220 279 10 11 29 36 43 54 14 19 33 42 43 52 9 10
17 20 17 23 0 5 34 47 63 77 9 10 17 22 17 28 0 5 6 13 13 17 6 4 34 37 62 73
27 36 54 71 60 77 5 7 19 24 30 38 11 14 28 36 39 48 10 12 39 49 64 82 26 33
51 65 57 72 15 18 25 31 80 103 28 36 55 70 61 75 6 6 26 30 45 55 19 25 39
52 46 60 7 8 40 51 75 95 35 44 67 85 73 92 5 6 21 26 35 44 44 57 279 353
300 377 11 13 20 27 20 32 0 5 4 10 8 12 5 2 42 46 82 98 41 52 78 100 83 105
4 6 17 21 28 35 12 14 42 52 67 85 25 33 49 62 52 65 3 3 37 46 75 95 38 50
72 92 75 95 3 3 21 25 40 50 19 25 39 50 45 56 5 6 19 23 30 38 11 16 30 40
42 55 26 30 107 133 143 180 14 18 30 38 35 44 6 7 26 32 45 57 19 25 42 52
52 61 10 9 18 20 18 25 0 5 13 24 30 42 16 18 42 49 57 70 15 20 30 39 33 42
3 3 21 25 40 50 19 25 37 47 40 50 3 3 19 23 35 45 16 22 37 49 47 60 10 11
37 45 61 75 23 30 46 60 52 66 5 6 19 23 30 39 11 15 27 35 35 44 9 9 29 35
45 56 17 22 32 42 35 45 10 9 55 66 75 94 11 16 25 33 30 40 6 6 33 40 60 75
28 36 57 72 65 81 19 22 38 45 75 95 34 45 55 72 70 89 6 6 26 31 45 56 19 25
39 50 45 57 11 14 10 12 85 108 30 39 57 72 60 75 3 3 21 25 40 50 19 25 38
47 42 48 5 2 8 8 8 13 0 5 8 17 18 27 9 11 24 28 32 38 8 10 64 82 125 159 60
77 113 142 117 143 4 2 8 10 8 17 0 7 4 15 9 17 9 3 81 91 126 154 11 15 26
33 33 40 7 7 29 35 49 61 20 26 42 55 50 63 7 8 61 76 119 150 100 128 139
177 192 240 12 16 22 33 22 40 0 6 5 8 10 5 6 -3 10 -2 10 3 0 5 21 36 48 69
26 33 58 74 72 92 14 18 40 49 57 69 18 20 33 40 33 44 0 4 8 15 18 25 10 10
43 49 73 88 66 86 70 90 111 141 65 81 93 117 101 130 4 8 19 26 31 40 29 33
39 44 101 125 27 35 57 72 66 82 9 10 25 35 35 57 10 22 23 40 27 40 5 0 5 5
2 10 -3 6 -2 10 3 10 9 0 45 112 57 175 7 39 7 139 0 190 -24 160 -111 315
-236 420 -52 43 -145 96 -153 87 -3 -3 -6 -1 -6 5 0 6 -15 14 -32 18 -18 4
-37 9 -43 11 -40 12 -70 17 -145 21 -97 5 -1521 10 -1592 5z"/>
<path d="M7848 3285 c-2 -1 -30 -6 -63 -10 -111 -13 -186 -24 -196 -31 -3 -2
-21 -6 -40 -9 -19 -3 -52 -11 -74 -17 -22 -6 -43 -12 -47 -14 -5 -1 -10 -3
-13 -4 -3 -1 -8 -3 -12 -4 -25 -6 -155 -52 -193 -68 -142 -63 -360 -184 -360
-200 0 -4 -5 -8 -11 -8 -9 0 -72 -43 -89 -60 -3 -3 -21 -17 -40 -31 -81 -61
-215 -193 -310 -305 -31 -37 -139 -188 -168 -234 -46 -76 -141 -272 -175 -361
-38 -104 -80 -252 -96 -344 -6 -33 -13 -71 -16 -85 -9 -44 -19 -193 -19 -275
1 -113 12 -178 47 -252 29 -62 51 -93 111 -154 45 -45 139 -108 169 -113 7 -1
17 -5 23 -9 7 -4 29 -9 50 -13 22 -3 42 -8 46 -10 9 -6 1573 -5 1608 0 282 43
507 262 557 541 3 17 6 383 7 814 1 586 -2 799 -11 844 -35 173 -182 338 -343
386 -25 7 -57 17 -72 22 -24 7 -262 11 -270 4z"/>
</g>
</svg>
